<svg width="540" height="150" viewBox="0 0 540 150" fill="none" xmlns="http://www.w3.org/2000/svg">
<g clip-path="url(#clip0_6964_41379)">
<path d="M38.7834 82.1474C32.8827 85.3515 16.9891 80.0425 10.6897 83.4628C4.95926 86.5742 1.0826 94.8313 7.95069 102.707C9.38931 104.356 11.4292 105.318 13.6168 105.39C20.567 105.617 33.8101 104.363 38.1503 106.653C42.8523 109.133 47.8814 122.763 51.4183 129.477C52.0974 130.766 53.0325 131.942 54.3358 132.594C61.6381 136.242 73.0247 129.713 72.7158 121.576C72.6877 120.838 72.4961 120.12 72.2218 119.434C69.5519 112.758 60.9062 100.466 59.6808 94.9618C58.5246 89.7681 68.2528 82.3855 72.311 73.8102C73.2371 71.8534 73.3555 69.6085 72.7807 67.5212C69.5046 55.6231 60.9429 57.0343 54.4685 59.6912C47.4603 62.5672 44.6841 78.9434 38.7834 82.1474Z" fill="#382D51"/>
<circle cx="13.0666" cy="13.0666" r="13.0666" transform="matrix(-0.878804 0.477184 0.477184 0.878804 33.5708 46.8765)" fill="#382D51"/>
<path d="M111.937 82.147C117.838 85.351 133.731 80.042 140.031 83.4623C145.761 86.5737 149.638 94.8308 142.77 102.706C141.331 104.356 139.291 105.318 137.103 105.39C130.153 105.617 116.91 104.363 112.57 106.652C107.868 109.133 102.839 122.763 99.3019 129.476C98.6228 130.765 97.6877 131.942 96.3844 132.593C89.0821 136.242 77.6956 129.713 78.0045 121.575C78.0325 120.837 78.2241 120.12 78.4984 119.434C81.1683 112.758 89.814 100.466 91.0394 94.9613C92.1956 89.7676 82.4674 82.385 78.4092 73.8097C77.4831 71.8529 77.3648 69.608 77.9395 67.5208C81.2156 55.6226 89.7773 57.0338 96.2517 59.6907C103.26 62.5667 106.036 78.9429 111.937 82.147Z" fill="#382D51"/>
<circle cx="122.398" cy="64.5946" r="13.0666" transform="rotate(28.5016 122.398 64.5946)" fill="#382D51"/>
<path d="M74.6961 45.483C67.9816 45.483 56.5477 33.2332 49.3796 33.233C42.859 33.2329 35.512 38.6394 37.7897 48.8376C38.2668 50.9737 39.6003 52.7928 41.4886 53.8995C47.4881 57.4157 59.7246 62.633 62.4462 66.7162C65.3947 71.1397 63.3102 85.5179 63.215 93.1052C63.1967 94.562 63.4569 96.0425 64.2916 97.2367C68.9678 103.928 82.0897 103.624 85.7014 96.3248C86.0291 95.6626 86.203 94.9407 86.2893 94.2069C87.1286 87.0661 85.3963 72.1381 86.946 66.7162C88.4083 61.6002 100.48 59.7545 108.139 54.155C109.886 52.8773 111.062 50.9609 111.552 48.8524C114.351 36.8329 106.154 33.9876 99.196 33.233C91.6648 32.4163 81.4106 45.483 74.6961 45.483Z" fill="#FF5F38"/>
<circle cx="13.0666" cy="13.0666" r="13.0666" transform="matrix(-1 0 0 1 86.9468 12)" fill="#FF5F38"/>
</g>
<path d="M177.3 103.2C171.767 103.2 167.567 101.833 164.7 99.1C161.9 96.3667 160.5 92.4667 160.5 87.4V36.4H173.7V84.5C173.7 86.6333 174.167 88.2667 175.1 89.4C176.033 90.4667 177.4 91 179.2 91C179.867 91 180.6 90.8667 181.4 90.6C182.2 90.2667 183.033 89.8 183.9 89.2L188.5 99.1C186.9 100.3 185.1 101.267 183.1 102C181.167 102.8 179.233 103.2 177.3 103.2ZM152.4 63.2V52H186.2V63.2H152.4ZM218.655 103.2C213.722 103.2 209.355 102.1 205.555 99.9C201.755 97.6333 198.755 94.5333 196.555 90.6C194.422 86.6667 193.355 82.1333 193.355 77C193.355 71.8667 194.455 67.3333 196.655 63.4C198.922 59.4667 201.989 56.4 205.855 54.2C209.789 51.9333 214.289 50.8 219.355 50.8C223.755 50.8 227.789 51.9667 231.455 54.3C235.189 56.5667 238.155 59.9333 240.355 64.4C242.622 68.8 243.755 74.1667 243.755 80.5H205.855L207.055 79.3C207.055 81.7667 207.655 83.9333 208.855 85.8C210.122 87.6 211.722 89 213.655 90C215.655 90.9333 217.789 91.4 220.055 91.4C222.789 91.4 225.022 90.8333 226.755 89.7C228.489 88.5 229.822 86.9667 230.755 85.1L242.555 89.7C241.155 92.5 239.322 94.9333 237.055 97C234.855 99 232.222 100.533 229.155 101.6C226.089 102.667 222.589 103.2 218.655 103.2ZM207.755 71.9L206.555 70.7H230.655L229.555 71.9C229.555 69.5 228.989 67.6 227.855 66.2C226.722 64.7333 225.322 63.6667 223.655 63C222.055 62.3333 220.489 62 218.955 62C217.422 62 215.789 62.3333 214.055 63C212.322 63.6667 210.822 64.7333 209.555 66.2C208.355 67.6 207.755 69.5 207.755 71.9ZM281.627 102L281.227 91.9V76.7C281.227 73.7 280.893 71.1333 280.227 69C279.627 66.8667 278.627 65.2333 277.227 64.1C275.893 62.9 274.06 62.3 271.727 62.3C269.593 62.3 267.66 62.7667 265.927 63.7C264.193 64.6333 262.727 66.0667 261.527 68L249.927 64C250.86 61.8667 252.227 59.8 254.027 57.8C255.827 55.7333 258.16 54.0667 261.027 52.8C263.96 51.4667 267.527 50.8 271.727 50.8C276.793 50.8 280.993 51.7667 284.327 53.7C287.727 55.6333 290.227 58.3667 291.827 61.9C293.493 65.3667 294.293 69.5 294.227 74.3L293.927 102H281.627ZM267.627 103.2C261.627 103.2 256.96 101.867 253.627 99.2C250.36 96.5333 248.727 92.7667 248.727 87.9C248.727 82.5667 250.493 78.5667 254.027 75.9C257.627 73.1667 262.66 71.8 269.127 71.8H281.827V81.6H273.727C269.393 81.6 266.393 82.1333 264.727 83.2C263.06 84.2 262.227 85.6333 262.227 87.5C262.227 88.9667 262.893 90.1333 264.227 91C265.56 91.8 267.427 92.2 269.827 92.2C272.027 92.2 273.96 91.7 275.627 90.7C277.36 89.6333 278.727 88.3 279.727 86.7C280.727 85.0333 281.227 83.3333 281.227 81.6H284.427C284.427 88.4 283.127 93.7 280.527 97.5C277.993 101.3 273.693 103.2 267.627 103.2ZM304.747 102V52H317.147L317.747 58.5C319.28 55.9667 321.247 54.0667 323.647 52.8C326.047 51.4667 328.714 50.8 331.647 50.8C335.714 50.8 339.114 51.6667 341.847 53.4C344.647 55.1333 346.68 57.8 347.947 61.4C349.414 58 351.48 55.4 354.147 53.6C356.814 51.7333 359.914 50.8 363.447 50.8C369.314 50.8 373.78 52.6667 376.847 56.4C379.914 60.0667 381.447 65.7333 381.447 73.4V102H368.247V76.4C368.247 73 367.88 70.3667 367.147 68.5C366.414 66.6333 365.414 65.3 364.147 64.5C362.88 63.6333 361.38 63.2 359.647 63.2C356.447 63.1333 353.98 64.1667 352.247 66.3C350.514 68.4333 349.647 71.6 349.647 75.8V102H336.447V76.4C336.447 73 336.08 70.3667 335.347 68.5C334.68 66.6333 333.68 65.3 332.347 64.5C331.08 63.6333 329.58 63.2 327.847 63.2C324.647 63.1333 322.18 64.1667 320.447 66.3C318.78 68.4333 317.947 71.6 317.947 75.8V102H304.747ZM392.754 102V52H405.954V102H392.754ZM399.354 43.9C397.354 43.9 395.587 43.1667 394.054 41.7C392.521 40.1667 391.754 38.3667 391.754 36.3C391.754 34.2333 392.521 32.4667 394.054 31C395.587 29.4667 397.354 28.7 399.354 28.7C401.421 28.7 403.187 29.4667 404.654 31C406.187 32.4667 406.954 34.2333 406.954 36.3C406.954 38.3667 406.187 40.1667 404.654 41.7C403.187 43.1667 401.421 43.9 399.354 43.9ZM423.126 102V47C423.126 41.6667 424.492 37.5333 427.226 34.6C429.959 31.6 434.126 30.1 439.726 30.1C441.659 30.1 443.692 30.4333 445.826 31.1C448.026 31.7667 450.026 32.5667 451.826 33.5L446.926 43C445.859 42.4667 444.892 42.0667 444.026 41.8C443.159 41.5333 442.359 41.4 441.626 41.4C439.826 41.4 438.492 42.0333 437.626 43.3C436.759 44.5 436.326 46.4667 436.326 49.2V102H423.126ZM414.826 62.6V52H448.626V62.6H414.826ZM467.384 123.2C465.584 123.2 463.584 122.833 461.384 122.1C459.25 121.433 457.35 120.633 455.684 119.7L460.584 109C461.717 109.6 462.75 110.067 463.684 110.4C464.684 110.8 465.55 111 466.284 111C467.684 111 468.917 110.6 469.984 109.8C471.05 109.067 471.917 107.967 472.584 106.5L478.484 92.6L494.384 52H508.884L486.184 106.3C484.784 109.633 483.317 112.567 481.784 115.1C480.25 117.7 478.35 119.7 476.084 121.1C473.884 122.5 470.984 123.2 467.384 123.2ZM474.984 102L452.084 52H466.584L483.284 92.6L487.584 102H474.984Z" fill="#FF5F38"/>
<defs>
<clipPath id="clip0_6964_41379">
<rect width="150" height="150" fill="white"/>
</clipPath>
</defs>
</svg>
