<svg width="150" height="150" viewBox="0 0 150 150" fill="none" xmlns="http://www.w3.org/2000/svg">
  <g clip-path="url(#clip0)">
    <!-- Left Shape -->
    <path d="M38.7834 82.1474C32.8827 85.3515 16.9891 80.0425 10.6897 83.4628C4.95926 86.5742 1.0826 94.8313 7.95069 102.707C9.38931 104.356 11.4292 105.318 13.6168 105.39C20.567 105.617 33.8101 104.363 38.1503 106.653C42.8523 109.133 47.8814 122.763 51.4183 129.477C52.0974 130.766 53.0325 131.942 54.3358 132.594C61.6381 136.242 73.0247 129.713 72.7158 121.576C72.6877 120.838 72.4961 120.12 72.2218 119.434C69.5519 112.758 60.9062 100.466 59.6808 94.9618C58.5246 89.7681 68.2528 82.3855 72.311 73.8102C73.2371 71.8534 73.3555 69.6085 72.7807 67.5212C69.5046 55.6231 60.9429 57.0343 54.4685 59.6912C47.4603 62.5672 44.6841 78.9434 38.7834 82.1474Z" fill="#FF5733"/>
    
    <!-- Left Circle -->
    <circle cx="13.0666" cy="13.0666" r="13.0666" transform="matrix(-0.878804 0.477184 0.477184 0.878804 33.5708 46.8765)" fill="#FFC300"/>
    
    <!-- Right Shape -->
    <path d="M111.937 82.147C117.838 85.351 133.731 80.042 140.031 83.4623C145.761 86.5737 149.638 94.8308 142.77 102.706C141.331 104.356 139.291 105.318 137.103 105.39C130.153 105.617 116.91 104.363 112.57 106.652C107.868 109.133 102.839 122.763 99.3019 129.476C98.6228 130.765 97.6877 131.942 96.3844 132.593C89.0821 136.242 77.6956 129.713 78.0045 121.575C78.0325 120.837 78.2241 120.12 78.4984 119.434C81.1683 112.758 89.814 100.466 91.0394 94.9613C92.1956 89.7676 82.4674 82.385 78.4092 73.8097C77.4831 71.8529 77.3648 69.608 77.9395 67.5208C81.2156 55.6226 89.7773 57.0338 96.2517 59.6907C103.26 62.5667 106.036 78.9429 111.937 82.147Z" fill="#900C3F"/>
    
    <!-- Right Circle -->
    <circle cx="122.398" cy="64.5946" r="13.0666" transform="rotate(28.5016 122.398 64.5946)" fill="#DAF7A6"/>
    
    <!-- Middle Shape -->
    <path d="M74.6961 45.483C67.9816 45.483 56.5477 33.2332 49.3796 33.233C42.859 33.2329 35.512 38.6394 37.7897 48.8376C38.2668 50.9737 39.6003 52.7928 41.4886 53.8995C47.4881 57.4157 59.7246 62.633 62.4462 66.7162C65.3947 71.1397 63.3102 85.5179 63.215 93.1052C63.1967 94.562 63.4569 96.0425 64.2916 97.2367C68.9678 103.928 82.0897 103.624 85.7014 96.3248C86.0291 95.6626 86.203 94.9407 86.2893 94.2069C87.1286 87.0661 85.3963 72.1381 86.946 66.7162C88.4083 61.6002 100.48 59.7545 108.139 54.155C109.886 52.8773 111.062 50.9609 111.552 48.8524C114.351 36.8329 106.154 33.9876 99.196 33.233C91.6648 32.4163 81.4106 45.483 74.6961 45.483Z" fill="#581845"/>
    
    <!-- Middle Circle -->
    <circle cx="13.0666" cy="13.0666" r="13.0666" transform="matrix(-1 0 0 1 86.9468 12)" fill="#C70039"/>
  </g>
  <defs>
    <clipPath id="clip0">
      <rect width="150" height="150" fill="white"/>
    </clipPath>
  </defs>
</svg>
