<svg xmlns="http://www.w3.org/2000/svg" width="500" height="500" viewBox="0 0 500 500">
<g>
<path d="M 295.77,274.58 L 297.93,274.62 L 298.87,274.65 L 300.65,274.73 L 301.44,274.79 L 302.96,274.92 L 303.65,275.02 L 306.27,275.47 L 307.58,275.83 L 310.25,276.67 L 311.89,277.27 L 315.55,278.68 L 317.78,279.61 L 318.81,280.09 L 322.70,282.04 L 324.44,283.14 L 327.83,285.46 L 329.50,286.87 L 332.85,289.86 L 334.68,291.72 L 339.74,297.79 L 342.85,302.44 L 344.20,304.92 L 346.73,309.95 L 347.70,312.47 L 348.62,314.97 L 348.99,316.20 L 349.67,318.63 L 349.91,319.80 L 350.15,321.65 L 350.30,323.49 L 350.37,324.69 L 350.50,327.29 L 350.55,328.86 L 350.66,332.16 L 350.71,334.06 L 350.80,338.03 L 350.83,340.25 L 350.90,344.84 L 350.92,347.35 L 350.97,352.50 L 350.98,355.28 L 351.00,360.96 L 351.00,402.85 L 348.37,404.93 L 347.74,405.41 L 347.37,405.60 L 346.54,405.97 L 345.90,406.11 L 344.45,406.38 L 343.34,406.48 L 342.17,406.57 L 341.46,406.61 L 339.95,406.69 L 339.06,406.72 L 337.18,406.78 L 336.07,406.80 L 333.76,406.85 L 332.42,406.87 L 329.62,406.90 L 328.03,406.91 L 324.69,406.93 L 322.81,406.93 L 318.88,406.94 L 316.68,406.95 L 312.12,406.95 L 309.58,406.95 L 304.32,406.95 L 301.42,406.94 L 295.41,406.94 L 292.12,406.93 L 285.46,406.92 L 281.25,406.91 L 279.25,406.90 L 275.33,406.88 L 273.48,406.87 L 269.85,406.85 L 268.14,406.84 L 264.79,406.81 L 263.22,406.79 L 260.16,406.76 L 258.73,406.74 L 255.95,406.70 L 254.66,406.68 L 252.16,406.64 L 251.01,406.61 L 248.78,406.57 L 247.76,406.54 L 245.81,406.48 L 244.93,406.45 L 243.24,406.39 L 242.50,406.36 L 241.07,406.30 L 240.46,406.26 L 238.28,406.11 L 237.57,406.03 L 236.42,405.86 L 236.23,405.77 L 234.46,404.35 L 233.56,403.08 L 233.41,402.48 L 233.30,401.23 L 233.25,399.65 L 233.22,398.52 L 233.18,396.04 L 233.17,394.50 L 233.14,391.24 L 233.13,389.36 L 233.12,385.43 L 233.13,383.25 L 233.13,378.77 L 233.14,376.36 L 233.17,371.44 L 233.19,368.85 L 233.23,363.60 L 233.25,360.89 L 233.32,354.43 L 233.37,350.49 L 233.39,348.69 L 233.43,345.21 L 233.46,343.63 L 233.50,340.57 L 233.53,339.18 L 233.58,336.51 L 233.61,335.31 L 233.66,332.99 L 233.69,331.95 L 233.76,329.94 L 233.79,329.05 L 233.87,327.33 L 233.91,326.57 L 234.09,323.75 L 234.20,322.63 L 234.43,320.57 L 234.58,319.72 L 235.24,316.75 L 235.72,315.32 L 238.30,308.75 L 240.35,304.59 L 241.53,302.63 L 243.98,298.79 L 245.35,297.00 L 248.20,293.49 L 249.76,291.87 L 252.97,288.72 L 254.70,287.29 L 258.26,284.52 L 260.16,283.29 L 264.05,280.92 L 266.11,279.89 L 270.30,277.94 L 272.50,277.13 L 276.59,275.78 L 279.07,275.19 L 280.44,275.01 L 281.85,274.84 L 282.64,274.79 L 284.27,274.68 L 285.20,274.65 L 287.15,274.60 L 288.27,274.58 L 290.63,274.57 L 292.00,274.57 M 175.71,229.28 L 177.97,229.47 L 182.43,229.98 L 184.59,230.42 L 188.86,231.42 L 190.93,232.12 L 195.01,233.63 L 196.98,234.57 L 200.87,236.58 L 202.75,237.78 L 206.48,240.30 L 208.27,241.75 L 211.82,244.78 L 213.54,246.49 L 218.38,251.95 L 221.43,255.98 L 222.70,257.94 L 223.93,259.88 L 224.45,260.79 L 225.43,262.57 L 225.81,263.36 L 226.48,264.89 L 226.69,265.53 L 226.99,266.71 L 226.99,267.14 L 226.67,268.06 L 226.16,268.99 L 225.80,269.57 L 224.99,270.78 L 224.51,271.45 L 223.50,272.81 L 222.94,273.50 L 216.04,282.88 L 212.08,289.17 L 210.43,292.29 L 207.38,298.51 L 206.21,301.56 L 204.12,307.59 L 203.46,310.50 L 203.08,312.44 L 202.85,313.97 L 202.74,314.84 L 202.52,316.67 L 202.42,317.69 L 202.22,319.81 L 202.13,320.97 L 201.79,325.89 L 201.66,328.74 L 201.41,334.68 L 201.32,338.00 L 201.16,343.64 L 201.05,346.87 L 200.99,348.24 L 200.87,350.84 L 200.80,351.92 L 200.66,353.96 L 200.58,354.79 L 200.42,356.33 L 200.33,356.94 L 200.13,358.07 L 200.02,358.50 L 199.80,359.28 L 199.66,359.57 L 199.39,360.07 L 199.24,360.25 L 198.85,360.63 L 198.55,360.79 L 197.87,361.08 L 197.32,361.20 L 196.09,361.42 L 195.18,361.51 L 193.14,361.67 L 191.74,361.73 L 190.27,361.78 L 189.42,361.80 L 187.64,361.85 L 186.63,361.86 L 184.53,361.90 L 183.34,361.91 L 180.87,361.93 L 179.49,361.94 L 176.63,361.95 L 175.04,361.96 L 171.75,361.97 L 169.94,361.97 L 166.19,361.97 L 164.14,361.97 L 159.90,361.97 L 157.60,361.97 L 148.56,361.95 L 143.02,361.91 L 140.51,361.89 L 135.66,361.83 L 133.50,361.80 L 129.36,361.72 L 127.57,361.68 L 124.19,361.58 L 122.79,361.53 L 120.18,361.42 L 119.19,361.35 L 117.40,361.22 L 116.83,361.15 L 115.89,361.00 L 115.75,360.92 L 115.21,360.41 L 114.91,359.82 L 114.79,359.32 L 114.57,358.16 L 114.48,357.28 L 114.33,355.30 L 114.27,353.92 L 114.21,352.47 L 114.19,351.63 L 114.15,349.87 L 114.13,348.86 L 114.10,346.76 L 114.08,345.57 L 114.06,343.10 L 114.05,341.72 L 114.04,338.85 L 114.03,337.25 L 114.02,333.95 L 114.02,332.12 L 114.01,328.36 L 114.01,326.29 L 114.01,322.03 L 114.01,319.70 L 114.02,313.98 L 114.03,310.41 L 114.03,308.75 L 114.05,305.51 L 114.06,304.00 L 114.08,301.05 L 114.09,299.69 L 114.11,297.02 L 114.13,295.79 L 114.16,293.40 L 114.18,292.30 L 114.27,288.13 L 114.33,286.38 L 114.45,283.08 L 114.52,281.72 L 114.68,279.16 L 114.78,278.11 L 114.98,276.16 L 115.10,275.36 L 115.36,273.87 L 115.50,273.25 L 118.18,264.89 L 120.57,259.61 L 122.05,257.15 L 125.19,252.35 L 127.01,250.14 L 130.80,245.88 L 132.92,243.97 L 137.29,240.32 L 139.67,238.75 L 144.55,235.78 L 147.14,234.58 L 152.44,232.36 L 155.22,231.56 L 160.86,230.17 L 163.78,229.81 L 171.03,229.27 M 292.14,154.00 L 295.12,154.09 L 296.60,154.25 L 299.53,154.63 L 300.98,154.93 L 303.86,155.61 L 305.27,156.05 L 308.06,156.99 L 309.42,157.57 L 312.11,158.79 L 313.42,159.50 L 315.99,160.98 L 317.22,161.82 L 319.64,163.56 L 320.79,164.53 L 323.05,166.52 L 324.11,167.61 L 326.18,169.85 L 327.14,171.06 L 329.00,173.53 L 329.84,174.86 L 331.47,177.57 L 332.19,179.00 L 333.24,181.12 L 333.80,182.34 L 334.03,182.91 L 334.79,185.07 L 335.00,186.27 L 335.19,187.51 L 335.26,188.23 L 335.37,189.74 L 335.40,190.63 L 335.45,192.53 L 335.46,193.66 L 335.48,196.08 L 335.48,197.52 L 335.47,201.38 L 335.45,203.53 L 335.42,204.42 L 335.35,206.11 L 335.29,206.83 L 335.15,208.19 L 335.04,208.80 L 334.52,211.05 L 334.07,212.20 L 333.58,213.37 L 333.27,214.02 L 332.62,215.39 L 332.23,216.19 L 328.30,222.98 L 325.38,226.88 L 323.72,228.56 L 320.24,231.77 L 318.24,233.17 L 314.06,235.85 L 311.64,237.05 L 309.90,237.90 L 309.14,238.26 L 307.67,238.94 L 307.01,239.22 L 304.52,240.19 L 303.33,240.50 L 300.92,241.03 L 299.51,241.19 L 298.04,241.34 L 297.21,241.40 L 295.48,241.51 L 294.48,241.57 L 289.55,241.60 L 286.38,241.40 L 284.86,241.19 L 281.85,240.68 L 280.40,240.32 L 277.54,239.50 L 276.16,238.98 L 273.42,237.85 L 272.10,237.17 L 269.49,235.72 L 268.23,234.87 L 265.72,233.10 L 264.50,232.10 L 262.09,230.00 L 260.92,228.82 L 256.42,223.52 L 253.89,219.67 L 252.86,217.62 L 250.97,213.46 L 250.26,211.28 L 249.03,206.89 L 248.66,204.64 L 248.09,200.11 L 248.06,197.84 L 248.18,193.28 L 248.50,191.01 L 249.32,186.51 L 250.00,184.32 L 251.54,179.97 L 252.58,177.89 L 254.02,175.37 L 255.17,173.63 L 255.82,172.75 L 258.64,169.22 L 260.23,167.54 L 263.51,164.30 L 265.17,162.94 L 266.83,161.63 L 267.64,161.06 L 269.25,160.01 L 270.01,159.59 L 274.32,157.52 L 277.24,156.39 L 278.71,155.94 L 281.68,155.12 L 283.17,154.83 L 286.16,154.33 L 287.66,154.19 L 290.65,153.98 M 176.88,109.28 L 178.44,109.47 L 181.52,109.92 L 183.00,110.27 L 185.92,111.03 L 187.32,111.53 L 190.11,112.62 L 191.45,113.29 L 194.12,114.71 L 195.43,115.55 L 198.01,117.32 L 199.28,118.33 L 201.81,120.44 L 203.06,121.64 L 205.80,124.49 L 207.44,126.45 L 208.18,127.48 L 209.60,129.58 L 210.26,130.70 L 211.52,133.01 L 212.11,134.27 L 213.18,136.60 L 213.76,137.94 L 214.00,138.55 L 214.79,140.85 L 215.01,142.04 L 215.20,143.27 L 215.27,143.95 L 215.38,145.38 L 215.41,146.21 L 215.46,147.96 L 215.47,149.00 L 215.47,151.19 L 215.47,152.50 L 215.44,155.63 L 215.40,157.47 L 215.37,158.28 L 215.18,161.27 L 215.01,162.50 L 214.61,164.82 L 214.31,165.90 L 213.63,168.06 L 213.15,169.24 L 211.14,173.47 L 209.50,176.22 L 208.55,177.55 L 206.56,180.17 L 205.46,181.42 L 203.18,183.87 L 201.94,185.01 L 199.42,187.24 L 198.08,188.25 L 195.35,190.22 L 193.93,191.08 L 191.06,192.73 L 189.58,193.42 L 186.61,194.72 L 185.10,195.21 L 183.54,195.67 L 182.64,195.86 L 180.77,196.22 L 179.75,196.36 L 175.46,196.81 L 173.19,196.87 L 168.61,196.88 L 166.46,196.72 L 164.33,196.53 L 163.35,196.39 L 161.44,196.08 L 160.59,195.88 L 155.88,194.22 L 152.46,192.53 L 150.71,191.46 L 147.22,189.19 L 145.56,187.90 L 142.33,185.24 L 140.92,183.83 L 136.49,178.68 L 134.03,175.05 L 133.03,173.16 L 131.21,169.33 L 130.52,167.37 L 129.31,163.40 L 128.93,161.39 L 128.30,157.35 L 128.21,155.33 L 128.15,151.28 L 128.33,149.27 L 128.82,145.26 L 129.27,143.30 L 130.28,139.41 L 130.98,137.53 L 132.49,133.81 L 133.43,132.03 L 135.42,128.55 L 136.58,126.92 L 139.03,123.73 L 140.41,122.26 L 143.29,119.43 L 144.88,118.17 L 148.17,115.76 L 149.96,114.73 L 153.63,112.80 L 155.60,112.04 L 159.63,110.65 L 161.78,110.18 L 166.15,109.39 L 168.46,109.25 L 173.61,109.14 Z" fill="rgb(1,1,1)"/>
<path d="M 0.00,250.00 L 0.00,0.00 L 250.00,0.00 L 500.00,0.00 L 500.00,250.00 L 500.00,500.00 L 250.00,500.00 L 0.00,500.00 L 0.00,250.00 M 348.37,404.93 L 351.00,402.85 L 351.00,363.98 L 351.00,360.96 L 350.98,355.28 L 350.97,352.50 L 350.92,347.35 L 350.90,344.84 L 350.83,340.25 L 350.80,338.03 L 350.71,334.06 L 350.66,332.16 L 350.55,328.86 L 350.50,327.29 L 350.37,324.69 L 350.30,323.49 L 350.15,321.65 L 349.91,319.80 L 349.67,318.63 L 348.99,316.20 L 348.62,314.97 L 347.70,312.47 L 346.73,309.95 L 344.20,304.92 L 342.85,302.44 L 339.74,297.79 L 334.68,291.72 L 332.85,289.86 L 329.50,286.87 L 327.83,285.46 L 324.44,283.14 L 322.70,282.04 L 318.81,280.09 L 317.78,279.61 L 315.55,278.68 L 311.89,277.27 L 310.25,276.67 L 307.58,275.83 L 306.27,275.47 L 303.65,275.02 L 302.96,274.92 L 301.44,274.79 L 300.65,274.73 L 298.87,274.65 L 297.93,274.62 L 295.77,274.58 L 292.00,274.57 L 290.63,274.57 L 288.27,274.58 L 287.15,274.60 L 285.20,274.65 L 284.27,274.68 L 282.64,274.79 L 281.85,274.84 L 280.44,275.01 L 279.07,275.19 L 276.59,275.78 L 272.50,277.13 L 270.30,277.94 L 266.11,279.89 L 264.05,280.92 L 260.16,283.29 L 258.26,284.52 L 254.70,287.29 L 252.97,288.72 L 249.76,291.87 L 248.20,293.49 L 245.35,297.00 L 243.98,298.79 L 241.53,302.63 L 240.35,304.59 L 238.30,308.75 L 235.72,315.32 L 235.24,316.75 L 234.58,319.72 L 234.43,320.57 L 234.20,322.63 L 234.09,323.75 L 233.91,326.57 L 233.87,327.33 L 233.79,329.05 L 233.76,329.94 L 233.69,331.95 L 233.66,332.99 L 233.61,335.31 L 233.58,336.51 L 233.53,339.18 L 233.50,340.57 L 233.46,343.63 L 233.43,345.21 L 233.39,348.69 L 233.37,350.49 L 233.32,354.43 L 233.25,360.89 L 233.23,363.60 L 233.19,368.85 L 233.17,371.44 L 233.14,376.36 L 233.13,378.77 L 233.13,383.25 L 233.12,385.43 L 233.13,389.36 L 233.14,391.24 L 233.17,394.50 L 233.18,396.04 L 233.22,398.52 L 233.25,399.65 L 233.30,401.23 L 233.41,402.48 L 233.56,403.08 L 234.46,404.35 L 236.23,405.77 L 236.42,405.86 L 237.57,406.03 L 238.28,406.11 L 240.46,406.26 L 241.07,406.30 L 242.50,406.36 L 243.24,406.39 L 244.93,406.45 L 245.81,406.48 L 247.76,406.54 L 248.78,406.57 L 251.01,406.61 L 252.16,406.64 L 254.66,406.68 L 255.95,406.70 L 258.73,406.74 L 260.16,406.76 L 263.22,406.79 L 264.79,406.81 L 268.14,406.84 L 269.85,406.85 L 273.48,406.87 L 275.33,406.88 L 279.25,406.90 L 281.25,406.91 L 285.46,406.92 L 292.12,406.93 L 295.41,406.94 L 301.42,406.94 L 304.32,406.95 L 309.58,406.95 L 312.12,406.95 L 316.68,406.95 L 318.88,406.94 L 322.81,406.93 L 324.69,406.93 L 328.03,406.91 L 329.62,406.90 L 332.42,406.87 L 333.76,406.85 L 336.07,406.80 L 337.18,406.78 L 339.06,406.72 L 339.95,406.69 L 341.46,406.61 L 342.17,406.57 L 343.34,406.48 L 344.45,406.38 L 345.90,406.11 L 346.54,405.97 L 347.37,405.60 L 347.74,405.41 M 199.24,360.25 L 199.39,360.07 L 199.66,359.57 L 199.80,359.28 L 200.02,358.50 L 200.13,358.07 L 200.33,356.94 L 200.42,356.33 L 200.58,354.79 L 200.66,353.96 L 200.80,351.92 L 200.87,350.84 L 200.99,348.24 L 201.05,346.87 L 201.16,343.64 L 201.32,338.00 L 201.41,334.68 L 201.66,328.74 L 201.79,325.89 L 202.13,320.97 L 202.22,319.81 L 202.42,317.69 L 202.52,316.67 L 202.74,314.84 L 202.85,313.97 L 203.08,312.44 L 203.46,310.50 L 204.12,307.59 L 206.21,301.56 L 207.38,298.51 L 210.43,292.29 L 212.08,289.17 L 216.04,282.88 L 222.94,273.50 L 223.50,272.81 L 224.51,271.45 L 224.99,270.78 L 225.80,269.57 L 226.16,268.99 L 226.67,268.06 L 226.99,267.14 L 226.99,266.71 L 226.69,265.53 L 226.48,264.89 L 225.81,263.36 L 225.43,262.57 L 224.45,260.79 L 223.93,259.88 L 222.70,257.94 L 221.43,255.98 L 218.38,251.95 L 213.54,246.49 L 211.82,244.78 L 208.27,241.75 L 206.48,240.30 L 202.75,237.78 L 200.87,236.58 L 196.98,234.57 L 195.01,233.63 L 190.93,232.12 L 188.86,231.42 L 184.59,230.42 L 182.43,229.98 L 177.97,229.47 L 175.71,229.28 L 171.03,229.27 L 163.78,229.81 L 160.86,230.17 L 155.22,231.56 L 152.44,232.36 L 147.14,234.58 L 144.55,235.78 L 139.67,238.75 L 137.29,240.32 L 132.92,243.97 L 130.80,245.88 L 127.01,250.14 L 125.19,252.35 L 122.05,257.15 L 120.57,259.61 L 118.18,264.89 L 115.50,273.25 L 115.36,273.87 L 115.10,275.36 L 114.98,276.16 L 114.78,278.11 L 114.68,279.16 L 114.52,281.72 L 114.45,283.08 L 114.33,286.38 L 114.27,288.13 L 114.18,292.30 L 114.16,293.40 L 114.13,295.79 L 114.11,297.02 L 114.09,299.69 L 114.08,301.05 L 114.06,304.00 L 114.05,305.51 L 114.03,308.75 L 114.03,310.41 L 114.02,313.98 L 114.01,319.70 L 114.01,322.03 L 114.01,326.29 L 114.01,328.36 L 114.02,332.12 L 114.02,333.95 L 114.03,337.25 L 114.04,338.85 L 114.05,341.72 L 114.06,343.10 L 114.08,345.57 L 114.10,346.76 L 114.13,348.86 L 114.15,349.87 L 114.19,351.63 L 114.21,352.47 L 114.27,353.92 L 114.33,355.30 L 114.48,357.28 L 114.57,358.16 L 114.79,359.32 L 114.91,359.82 L 115.21,360.41 L 115.75,360.92 L 115.89,361.00 L 116.83,361.15 L 117.40,361.22 L 119.19,361.35 L 120.18,361.42 L 122.79,361.53 L 124.19,361.58 L 127.57,361.68 L 129.36,361.72 L 133.50,361.80 L 135.66,361.83 L 140.51,361.89 L 143.02,361.91 L 148.56,361.95 L 157.60,361.97 L 159.90,361.97 L 164.14,361.97 L 166.19,361.97 L 169.94,361.97 L 171.75,361.97 L 175.04,361.96 L 176.63,361.95 L 179.49,361.94 L 180.87,361.93 L 183.34,361.91 L 184.53,361.90 L 186.63,361.86 L 187.64,361.85 L 189.42,361.80 L 190.27,361.78 L 191.74,361.73 L 193.14,361.67 L 195.18,361.51 L 196.09,361.42 L 197.32,361.20 L 197.87,361.08 L 198.55,360.79 L 198.85,360.63 M 311.64,237.05 L 314.06,235.85 L 318.24,233.17 L 320.24,231.77 L 323.72,228.56 L 325.38,226.88 L 328.30,222.98 L 332.23,216.19 L 332.62,215.39 L 333.27,214.02 L 333.58,213.37 L 334.07,212.20 L 334.52,211.05 L 335.04,208.80 L 335.15,208.19 L 335.29,206.83 L 335.35,206.11 L 335.42,204.42 L 335.45,203.53 L 335.47,201.38 L 335.48,197.52 L 335.48,196.08 L 335.46,193.66 L 335.45,192.53 L 335.40,190.63 L 335.37,189.74 L 335.26,188.23 L 335.19,187.51 L 335.00,186.27 L 334.79,185.07 L 334.03,182.91 L 333.80,182.34 L 333.24,181.12 L 332.19,179.00 L 331.47,177.57 L 329.84,174.86 L 329.00,173.53 L 327.14,171.06 L 326.18,169.85 L 324.11,167.61 L 323.05,166.52 L 320.79,164.53 L 319.64,163.56 L 317.22,161.82 L 315.99,160.98 L 313.42,159.50 L 312.11,158.79 L 309.42,157.57 L 308.06,156.99 L 305.27,156.05 L 303.86,155.61 L 300.98,154.93 L 299.53,154.63 L 296.60,154.25 L 295.12,154.09 L 292.14,154.00 L 290.65,153.98 L 287.66,154.19 L 286.16,154.33 L 283.17,154.83 L 281.68,155.12 L 278.71,155.94 L 277.24,156.39 L 274.32,157.52 L 270.01,159.59 L 269.25,160.01 L 267.64,161.06 L 266.83,161.63 L 265.17,162.94 L 263.51,164.30 L 260.23,167.54 L 258.64,169.22 L 255.82,172.75 L 255.17,173.63 L 254.02,175.37 L 252.58,177.89 L 251.54,179.97 L 250.00,184.32 L 249.32,186.51 L 248.50,191.01 L 248.18,193.28 L 248.06,197.84 L 248.09,200.11 L 248.66,204.64 L 249.03,206.89 L 250.26,211.28 L 250.97,213.46 L 252.86,217.62 L 253.89,219.67 L 256.42,223.52 L 260.92,228.82 L 262.09,230.00 L 264.50,232.10 L 265.72,233.10 L 268.23,234.87 L 269.49,235.72 L 272.10,237.17 L 273.42,237.85 L 276.16,238.98 L 277.54,239.50 L 280.40,240.32 L 281.85,240.68 L 284.86,241.19 L 286.38,241.40 L 289.55,241.60 L 294.48,241.57 L 295.48,241.51 L 297.21,241.40 L 298.04,241.34 L 299.51,241.19 L 300.92,241.03 L 303.33,240.50 L 304.52,240.19 L 307.01,239.22 L 307.67,238.94 L 309.14,238.26 L 309.90,237.90 M 185.10,195.21 L 186.61,194.72 L 189.58,193.42 L 191.06,192.73 L 193.93,191.08 L 195.35,190.22 L 198.08,188.25 L 199.42,187.24 L 201.94,185.01 L 203.18,183.87 L 205.46,181.42 L 206.56,180.17 L 208.55,177.55 L 209.50,176.22 L 211.14,173.47 L 213.15,169.24 L 213.63,168.06 L 214.31,165.90 L 214.61,164.82 L 215.01,162.50 L 215.18,161.27 L 215.37,158.28 L 215.40,157.47 L 215.44,155.63 L 215.47,152.50 L 215.47,151.19 L 215.47,149.00 L 215.46,147.96 L 215.41,146.21 L 215.38,145.38 L 215.27,143.95 L 215.20,143.27 L 215.01,142.04 L 214.79,140.85 L 214.00,138.55 L 213.76,137.94 L 213.18,136.60 L 212.11,134.27 L 211.52,133.01 L 210.26,130.70 L 209.60,129.58 L 208.18,127.48 L 207.44,126.45 L 205.80,124.49 L 203.06,121.64 L 201.81,120.44 L 199.28,118.33 L 198.01,117.32 L 195.43,115.55 L 194.12,114.71 L 191.45,113.29 L 190.11,112.62 L 187.32,111.53 L 185.92,111.03 L 183.00,110.27 L 181.52,109.92 L 178.44,109.47 L 176.88,109.28 L 173.61,109.14 L 168.46,109.25 L 166.15,109.39 L 161.78,110.18 L 159.63,110.65 L 155.60,112.04 L 153.63,112.80 L 149.96,114.73 L 148.17,115.76 L 144.88,118.17 L 143.29,119.43 L 140.41,122.26 L 139.03,123.73 L 136.58,126.92 L 135.42,128.55 L 133.43,132.03 L 132.49,133.81 L 130.98,137.53 L 130.28,139.41 L 129.27,143.30 L 128.82,145.26 L 128.33,149.27 L 128.15,151.28 L 128.21,155.33 L 128.30,157.35 L 128.93,161.39 L 129.31,163.40 L 130.52,167.37 L 131.21,169.33 L 133.03,173.16 L 134.03,175.05 L 136.49,178.68 L 140.92,183.83 L 142.33,185.24 L 145.56,187.90 L 147.22,189.19 L 150.71,191.46 L 152.46,192.53 L 155.88,194.22 L 160.59,195.88 L 161.44,196.08 L 163.35,196.39 L 164.33,196.53 L 166.46,196.72 L 168.61,196.88 L 173.19,196.87 L 175.46,196.81 L 179.75,196.36 L 180.77,196.22 L 182.64,195.86 L 183.54,195.67 Z" fill="rgb(254,254,254)"/>
</g>
</svg>